<svg xmlns="http://www.w3.org/2000/svg" xmlns:svg="http://www.w3.org/2000/svg" id="svg2" width="256" height="256" version="1.1" viewBox="0 0 256 256"><defs id="defs4"><marker id="marker9300" orient="auto" refX="0" refY="0" style="overflow:visible"><path id="path9302" d="M 8.7185878,4.0337352 L -2.2072895,0.016013256 L 8.7185884,-4.0017078 C 6.9730900,-1.6296469 6.9831476,1.6157441 8.7185878,4.0337352 z" transform="scale(1.1) rotate(180) translate(1,0)" style="fill-rule:evenodd;stroke-width:.625;stroke-linejoin:round;stroke:#fff;stroke-opacity:1;fill:#fff;fill-opacity:1"/></marker><marker id="Arrow2Mend" orient="auto" refX="0" refY="0" style="overflow:visible"><path id="path5124" d="M 8.7185878,4.0337352 L -2.2072895,0.016013256 L 8.7185884,-4.0017078 C 6.9730900,-1.6296469 6.9831476,1.6157441 8.7185878,4.0337352 z" transform="scale(0.6) rotate(180) translate(0,0)" style="fill-rule:evenodd;stroke-width:.625;stroke-linejoin:round;stroke:#fff;stroke-opacity:1;fill:#fff;fill-opacity:1"/></marker><marker id="RazorWire" orient="auto" refX="0" refY="0" style="overflow:visible"><path id="path5329" d="M 0.022727273,-0.74009011 L 0.022727273,0.69740989 L -7.7585227,3.0099099 L 10.678977,3.0099099 L 3.4914773,0.69740989 L 3.4914773,-0.74009011 L 10.741477,-2.8963401 L -7.7272727,-2.8963401 L 0.022727273,-0.74009011 z" transform="scale(0.8,0.8)" style="fill:#fff;fill-opacity:1;fill-rule:evenodd;stroke:#fff;stroke-width:.1pt;stroke-opacity:1"/></marker><marker id="Legs" orient="auto" refX="0" refY="0" style="overflow:visible"><g id="g5296" transform="scale(-0.7)" style="stroke:#fff;stroke-opacity:1;fill:#fff;fill-opacity:1"><g id="g5298" transform="matrix(0,-1.000000,-1.000000,0,20.70862,21.31391)" style="stroke:#fff;stroke-opacity:1;fill:#fff;fill-opacity:1"><path id="path5300" d="M 21.221250,20.675360 C 14.311099,25.396517 18.766725,27.282204 15.380179,34.118595" style="fill:#fff;fill-opacity:1;fill-rule:evenodd;stroke:#fff;stroke-width:1pt;stroke-opacity:1"/><path id="path5302" d="M 21.398110,20.548120 C 20.037601,28.895644 24.934182,29.318060 25.903151,34.373078" style="fill:#fff;fill-opacity:1;fill-rule:evenodd;stroke:#fff;stroke-width:1pt;stroke-opacity:1"/></g><path id="path5304" d="M -14.090070,-6.7318716 L -15.012238,-2.6884886 L -11.049487,-3.9115586 L -14.090070,-6.7318716 z" style="fill:#fff;fill-rule:evenodd;stroke-width:1pt;stroke:#fff;stroke-opacity:1;fill-opacity:1"/><path id="path5306" d="M -15.215679,4.5567534 L -13.341552,8.2563664 L -11.074678,4.7835114 L -15.215679,4.5567534 z" style="fill:#fff;fill-rule:evenodd;stroke-width:1pt;stroke:#fff;stroke-opacity:1;fill-opacity:1"/></g></marker><marker id="Scissors" orient="auto" refX="0" refY="0" style="overflow:visible"><path id="schere" d="M 9.0898857,-3.6061018 C 8.1198849,-4.7769976 6.3697607,-4.7358294 5.0623558,-4.2327734 L -3.1500488,-1.1548705 C -5.5383421,-2.4615840 -7.8983361,-2.0874077 -7.8983361,-2.7236578 C -7.8983361,-3.2209742 -7.4416699,-3.1119800 -7.5100293,-4.4068519 C -7.5756648,-5.6501286 -8.8736064,-6.5699315 -10.100428,-6.4884954 C -11.327699,-6.4958500 -12.599867,-5.5553341 -12.610769,-4.2584343 C -12.702194,-2.9520479 -11.603560,-1.7387447 -10.304005,-1.6532027 C -8.7816644,-1.4265411 -6.0857470,-2.3487593 -4.8210600,-0.082342643 C -5.7633447,1.6559151 -7.4350844,1.6607341 -8.9465707,1.5737277 C -10.201445,1.5014928 -11.708664,1.8611256 -12.307219,3.0945882 C -12.885586,4.2766744 -12.318421,5.9591904 -10.990470,6.3210002 C -9.6502788,6.8128279 -7.8098011,6.1912892 -7.4910978,4.6502760 C -7.2454393,3.4624530 -8.0864637,2.9043186 -7.7636052,2.4731223 C -7.5199917,2.1477623 -5.9728246,2.3362771 -3.2164999,1.0982979 L 5.6763468,4.2330688 C 6.8000164,4.5467672 8.1730685,4.5362646 9.1684433,3.4313614 L -0.051640930,-0.053722219 L 9.0898857,-3.6061018 z M -9.2179159,-5.5066058 C -7.9233569,-4.7838060 -8.0290767,-2.8230356 -9.3743431,-2.4433169 C -10.590861,-2.0196559 -12.145370,-3.2022863 -11.757521,-4.5207817 C -11.530373,-5.6026336 -10.104134,-6.0014137 -9.2179159,-5.5066058 z M -9.1616516,2.5107591 C -7.8108215,3.0096239 -8.0402087,5.2951947 -9.4138723,5.6023681 C -10.324932,5.9187072 -11.627422,5.4635705 -11.719569,4.3902287 C -11.897178,3.0851737 -10.363484,1.9060805 -9.1616516,2.5107591 z" style="fill:#fff;stroke:#fff;stroke-opacity:1;fill-opacity:1"/></marker><marker id="Arrow2Lend" orient="auto" refX="0" refY="0" style="overflow:visible"><path id="path5118" d="M 8.7185878,4.0337352 L -2.2072895,0.016013256 L 8.7185884,-4.0017078 C 6.9730900,-1.6296469 6.9831476,1.6157441 8.7185878,4.0337352 z" transform="scale(1.1) rotate(180) translate(1,0)" style="fill-rule:evenodd;stroke-width:.625;stroke-linejoin:round;stroke:#fff;stroke-opacity:1;fill:#fff;fill-opacity:1"/></marker><marker id="Arrow1Lend" orient="auto" refX="0" refY="0" style="overflow:visible"><path id="path5100" d="M 0.0,0.0 L 5.0,-5.0 L -12.5,0.0 L 5.0,5.0 L 0.0,0.0 z" transform="scale(0.8) rotate(180) translate(12.5,0)" style="fill-rule:evenodd;stroke:#fff;stroke-width:1pt;stroke-opacity:1;fill:#fff;fill-opacity:1"/></marker><marker id="Arrow2Lend-3" orient="auto" refX="0" refY="0" style="overflow:visible"><path id="path5118-5" d="M 8.7185878,4.0337352 -2.2072895,0.01601326 8.7185884,-4.0017078 c -1.7454984,2.3720609 -1.7354408,5.6174519 -6e-7,8.035443 z" transform="matrix(-1.1,0,0,-1.1,-1.1,0)" style="fill:#fff;fill-opacity:1;fill-rule:evenodd;stroke:#fff;stroke-width:.625;stroke-linejoin:round;stroke-opacity:1"/></marker></defs><metadata id="metadata7"/><g id="g9695" transform="translate(0,-796.36216)" style="display:inline"><path style="opacity:1;fill:#000;fill-opacity:1;fill-rule:nonzero;stroke:none;stroke-width:6.99998665;stroke-linecap:butt;stroke-linejoin:miter;stroke-miterlimit:4;stroke-dasharray:none;stroke-dashoffset:0;stroke-opacity:1" id="path9806" d="M 128 0 C 125.01331 0 122.04356 0.98117375 117.86914 2.4648438 C 113.69474 3.9485238 108.62397 6.0332738 102.92773 8.5585938 C 91.535272 13.609254 77.661547 20.417063 63.998047 27.564453 C 50.334546 34.711863 36.894934 42.193622 26.371094 48.607422 C 21.109174 51.814332 16.581532 54.749593 13.076172 57.283203 C 9.5708118 59.816823 7.1456871 61.65649 5.6523438 64 C 4.1589978 66.34352 3.6124089 69.164341 2.9433594 73.181641 C 2.27431 77.198941 1.7331451 82.222848 1.2988281 87.955078 C 0.43019395 99.419538 -4.0818032e-07 113.70521 0 128 C 5.102254e-07 142.29479 0.43019282 156.58241 1.2988281 168.04688 C 1.7331451 173.77908 2.27431 178.7991 2.9433594 182.81641 C 3.6124089 186.83371 4.158999 189.65648 5.6523438 192 C 7.1456883 194.3435 9.5708118 196.18318 13.076172 198.7168 C 16.581532 201.25042 21.109174 204.18578 26.371094 207.39258 C 36.894934 213.80648 50.334545 221.28825 63.998047 228.43555 C 77.661547 235.58295 91.535273 242.38885 102.92773 247.43945 C 108.62397 249.96485 113.69474 252.0495 117.86914 253.5332 C 122.04356 255.0169 125.01331 256 128 256 C 130.98669 256 133.95644 255.0169 138.13086 253.5332 C 142.30527 252.0495 147.37603 249.96485 153.07227 247.43945 C 164.46473 242.38885 178.33649 235.58295 192 228.43555 C 205.6635 221.28825 219.10506 213.80648 229.62891 207.39258 C 234.89082 204.18578 239.41847 201.25042 242.92383 198.7168 C 246.42919 196.18318 248.85236 194.3435 250.3457 192 C 251.83904 189.65648 252.38759 186.83371 253.05664 182.81641 C 253.72569 178.7991 254.26686 173.77908 254.70117 168.04688 C 255.56981 156.58241 256 142.29479 256 128 C 256 113.70521 255.56981 99.419538 254.70117 87.955078 C 254.26686 82.222848 253.72569 77.198941 253.05664 73.181641 C 252.38759 69.164341 251.83904 66.34352 250.3457 64 C 248.85236 61.65649 246.42919 59.816823 242.92383 57.283203 C 239.41847 54.749593 234.89082 51.814332 229.62891 48.607422 C 219.10506 42.193622 205.6635 34.711863 192 27.564453 C 178.33649 20.417063 164.46473 13.609254 153.07227 8.5585938 C 147.37603 6.0332737 142.30526 3.9485238 138.13086 2.4648438 C 133.95645 0.9811737 130.98669 -2.9605947e-16 128 0 z M 128 7.3320312 C 144.05847 7.3320312 241.55078 59.133536 241.55078 67.666016 C 241.55078 76.198496 144.05846 128 128 128 C 111.94154 128 14.449219 76.198486 14.449219 67.666016 C 14.449219 59.133536 111.94154 7.3320312 128 7.3320312 z M 229.95117 104.53125 C 230.64032 104.47696 231.0918 104.7577 231.0918 105.34375 L 231.0918 122.875 C 231.0918 123.8127 229.93574 125.16655 228.5 125.91211 L 161.0918 160.91797 C 159.65606 161.66353 158.5 161.508 158.5 160.57031 L 158.5 143.03906 C 158.5 142.10138 159.65606 140.74556 161.0918 140 L 228.5 104.99609 C 229.0384 104.71651 229.53768 104.56383 229.95117 104.53125 z M 229.75391 131.17773 C 230.56202 131.11406 231.0918 131.44172 231.0918 132.12891 L 231.0918 142.10352 C 231.0918 143.20316 229.7363 144.79176 228.05273 145.66602 L 212.78125 153.59766 C 211.09768 154.47192 209.74219 154.29105 209.74219 153.19141 L 209.74219 143.2168 C 209.74219 142.11729 211.09768 140.52856 212.78125 139.6543 L 228.05273 131.72266 C 228.68407 131.39481 229.26904 131.21594 229.75391 131.17773 z M 204.13477 144.48242 C 204.94287 144.41875 205.4707 144.74641 205.4707 145.43359 L 205.4707 155.4082 C 205.4707 156.50785 204.11521 158.09644 202.43164 158.9707 L 187.16016 166.90234 C 185.47659 167.7766 184.12109 167.59573 184.12109 166.49609 L 184.12109 156.52148 C 184.12109 155.42197 185.47659 153.83324 187.16016 152.95898 L 202.43164 145.02734 C 203.06298 144.6995 203.6499 144.52063 204.13477 144.48242 z M 229.75391 147.91016 C 230.56202 147.84648 231.0918 148.17413 231.0918 148.86133 L 231.0918 158.83789 C 231.0918 159.93754 229.7363 161.52613 228.05273 162.40039 L 212.78125 170.33008 C 211.09768 171.20434 209.74219 171.02347 209.74219 169.92383 L 209.74219 159.94922 C 209.74219 158.84972 211.09768 157.26098 212.78125 156.38672 L 228.05273 148.45508 C 228.68407 148.12723 229.26904 147.94836 229.75391 147.91016 z M 178.51367 157.78711 C 179.32178 157.72343 179.85156 158.05109 179.85156 158.73828 L 179.85156 168.71289 C 179.85156 169.81254 178.49607 171.40113 176.8125 172.27539 L 161.53906 180.20703 C 159.85549 181.08129 158.5 180.90042 158.5 179.80078 L 158.5 169.82617 C 158.5 168.72667 159.85549 167.13598 161.53906 166.26172 L 176.8125 158.33203 C 177.44384 158.00418 178.02881 157.82531 178.51367 157.78711 z M 204.13477 161.21484 C 204.94287 161.15117 205.4707 161.47882 205.4707 162.16602 L 205.4707 172.14062 C 205.4707 173.24027 204.11521 174.83082 202.43164 175.70508 L 187.16016 183.63477 C 185.47659 184.50903 184.12109 184.32817 184.12109 183.22852 L 184.12109 173.25391 C 184.12109 172.15441 185.47659 170.56567 187.16016 169.69141 L 202.43164 161.75977 C 203.06298 161.43192 203.6499 161.25305 204.13477 161.21484 z M 229.75391 164.64258 C 230.56202 164.5789 231.0918 164.90852 231.0918 165.5957 L 231.0918 175.57031 C 231.0918 176.66995 229.7363 178.25855 228.05273 179.13281 L 212.78125 187.06445 C 211.09768 187.93871 209.74219 187.75589 209.74219 186.65625 L 209.74219 176.68164 C 209.74219 175.58213 211.09768 173.9934 212.78125 173.11914 L 228.05273 165.18945 C 228.68407 164.86161 229.26904 164.68078 229.75391 164.64258 z M 178.51367 174.51953 C 179.32178 174.45586 179.85156 174.78351 179.85156 175.4707 L 179.85156 185.44531 C 179.85156 186.54495 178.49607 188.13551 176.8125 189.00977 L 161.53906 196.93945 C 159.85549 197.81371 158.5 197.63285 158.5 196.5332 L 158.5 186.55859 C 158.5 185.45909 159.85549 183.87035 161.53906 182.99609 L 176.8125 175.06445 C 177.44384 174.73661 178.02881 174.55774 178.51367 174.51953 z M 204.13477 177.94727 C 204.94287 177.88359 205.4707 178.2132 205.4707 178.90039 L 205.4707 188.875 C 205.4707 189.97465 204.11521 191.56324 202.43164 192.4375 L 187.16016 200.36914 C 185.47659 201.2434 184.12109 201.06058 184.12109 199.96094 L 184.12109 189.98633 C 184.12109 188.88682 185.47659 187.29809 187.16016 186.42383 L 202.43164 178.49414 C 203.06298 178.16629 203.6499 177.98547 204.13477 177.94727 z M 178.51367 191.25195 C 179.32178 191.18828 179.85156 191.51788 179.85156 192.20508 L 179.85156 202.17969 C 179.85156 203.27934 178.49607 204.86789 176.8125 205.74219 L 161.53906 213.67383 C 159.85549 214.54813 158.5 214.36523 158.5 213.26562 L 158.5 203.29102 C 158.5 202.19152 159.85549 200.60278 161.53906 199.72852 L 176.8125 191.79688 C 177.44384 191.46903 178.02881 191.29016 178.51367 191.25195 z M 204.13477 194.68164 C 204.94287 194.61797 205.4707 194.94562 205.4707 195.63281 L 205.4707 205.60742 C 205.4707 206.70712 204.11521 208.29572 202.43164 209.16992 L 187.16016 217.10156 C 185.47659 217.97586 184.12109 217.79491 184.12109 216.69531 L 184.12109 206.7207 C 184.12109 205.6212 185.47659 204.03246 187.16016 203.1582 L 202.43164 195.22656 C 203.06298 194.89871 203.6499 194.71984 204.13477 194.68164 z" transform="translate(0,796.36216)"/></g></svg>