<svg id="Layer_1" data-name="Layer 1" xmlns="http://www.w3.org/2000/svg" viewBox="0 0 908.22 236.87"><defs><style>.cls-1{fill:#4590d2;}.cls-2{fill:#74bbec;}.cls-3{fill:#badef5;}</style></defs><polygon class="cls-1" points="0 97.62 0 61.84 31 79.74 30.99 115.51 0 97.62"/><polygon class="cls-1" points="0 138.08 0 102.29 30.98 120.18 31 155.97 0 138.08"/><polygon class="cls-1" points="0 178.52 0 142.75 31 160.64 30.99 196.42 0 178.52"/><polygon class="cls-1" points="35.03 198.76 35.05 162.97 66.01 180.85 66.01 216.66 35.03 198.76"/><polygon class="cls-1" points="70.06 218.99 70.06 183.18 101.08 201.1 101.06 236.87 70.06 218.99"/><polygon class="cls-2" points="175.17 160.62 206.05 142.74 206.15 178.53 175.17 196.39 175.17 160.62"/><polygon class="cls-2" points="175.18 120.14 206.04 102.29 206.04 138.07 175.17 155.95 175.18 120.14"/><polygon class="cls-2" points="175.16 79.75 206.14 61.85 206.04 97.61 175.18 115.46 175.16 79.75"/><polygon class="cls-3" points="142.18 58.34 173.16 40.44 204.13 58.34 173.14 76.24 142.18 58.34"/><polygon class="cls-3" points="107.12 38.12 138.13 20.21 169.12 38.11 138.13 56 107.12 38.12"/><polygon class="cls-3" points="72.09 17.92 103.08 0 134.09 17.87 103.07 35.78 72.09 17.92"/><polygon class="cls-3" points="71.09 98.44 103.08 79.97 135.06 98.44 103.08 116.91 71.09 98.44"/><polygon class="cls-1" points="69.05 138.92 69.05 101.98 101.03 120.45 101.03 157.38 69.05 138.92"/><polygon class="cls-2" points="105.12 120.45 137.11 101.98 137.11 138.92 105.12 157.38 105.12 120.45"/><path class="cls-1" d="M303.68,279.18h11.6q7.62,0,13.51-.14a63.59,63.59,0,0,0,9-.67v13.16H287.56a60.25,60.25,0,0,0,.7-9.32q.11-6.09.11-14V236.48q0-7.95-.11-14a60.36,60.36,0,0,0-.7-9.32h16.12Z" transform="translate(-22.63 -134.54)"/><path class="cls-1" d="M345.84,213.11h41.09v11H374v56.39h12.89v11H345.84v-11h12.89V224.13H345.84Z" transform="translate(-22.63 -134.54)"/><path class="cls-1" d="M399.15,267.09V237.82q0-7.89-.11-14.69a65.94,65.94,0,0,0-.7-10c2.65-.17,6.18-.31,10.59-.4s9.2-.13,14.39-.13a59.4,59.4,0,0,1,15.39,1.82,21.5,21.5,0,0,1,10.58,6.07q3.84,4.25,3.84,11.44,0,6.56-3.68,10.58a23.27,23.27,0,0,1-8.94,6.07,33.11,33.11,0,0,1,7.84,3.25,17.83,17.83,0,0,1,6.31,6.15q2.5,4,2.5,10.48a21.65,21.65,0,0,1-3.49,12q-3.5,5.37-10.8,8.48t-18.69,3.12q-6.18,0-11.58-.11c-3.59-.07-6.65-.15-9.15-.24l-5.11-.19a64.5,64.5,0,0,0,.7-9.85Q399.15,275,399.15,267.09Zm15.31-42.59v20h8.32q7.64,0,11.66-2.9a9.3,9.3,0,0,0,4-7.95q0-4.78-3.39-7.12t-10.9-2.34c-1.86,0-3.7,0-5.51.08S415.46,224.43,414.46,224.5Zm0,31.69v23.53l4.08.16c1.83.07,4.08.1,6.77.1a31.06,31.06,0,0,0,8.59-1.12,12.51,12.51,0,0,0,6.26-3.9,11.4,11.4,0,0,0,2.34-7.6,9.19,9.19,0,0,0-4.6-8.35q-4.59-2.82-13.08-2.82Z" transform="translate(-22.63 -134.54)"/><path class="cls-1" d="M485.5,260.11v8.06q0,7.95.14,14.07a68.71,68.71,0,0,0,.67,9.29H469.39a61.54,61.54,0,0,0,.7-9.32q.11-6.09.11-14V237.82q0-7.89-.11-14.69a67.29,67.29,0,0,0-.7-10l8.73-.26q3.94-.12,8.67-.19c3.15-.06,6.3-.08,9.46-.08A39.2,39.2,0,0,1,511,215.13a21.55,21.55,0,0,1,9.91,7.65q3.57,5.11,3.58,12.89,0,8.49-4.19,13.91a24.44,24.44,0,0,1-10.93,8,40.49,40.49,0,0,1-14.43,2.55Zm0-35.18v23.63h8.33q7,0,11.17-2.76t4.14-9.86c0-4-1.27-6.94-3.82-8.67s-6.19-2.61-10.95-2.61c-2.08,0-3.72,0-4.92.08Zm5.7,32.5,14.55-2.8,6.21,8.65,6,8.33q3.2,4.45,6.26,8.64t5.37,7.25c1.54,2,2.61,3.39,3.22,4H513.7Z" transform="translate(-22.63 -134.54)"/><path class="cls-1" d="M557.55,244.54h29.38v12.08H557.55v22.56H571.4q7.68,0,12.87-.14a58.57,58.57,0,0,0,8.3-.67v13.16H541.43a60.25,60.25,0,0,0,.7-9.32q.11-6.09.11-14V236.48q0-7.95-.11-14a60.36,60.36,0,0,0-.7-9.32H591v12.36h-33.4Z" transform="translate(-22.63 -134.54)"/><path class="cls-1" d="M657.33,213.11h16.38q-1.46,3.28-3.09,7.52t-4.43,12.09l-21,58.81h-18l-21-58.81q-2.79-7.78-4.48-12.06c-1.13-2.85-2.14-5.36-3-7.55h16.38l21.06,64.46Z" transform="translate(-22.63 -134.54)"/><path class="cls-1" d="M684.86,291.53h-16q1.46-3.27,3-7.36t4-11.71l19.87-59.35h19.12l19.87,59.35q2.53,7.53,4.06,11.69c1,2.77,2,5.23,2.93,7.38H726l-6-19.07H690.77Zm31.47-30.61-11.06-35.34-11,35.34Z" transform="translate(-22.63 -134.54)"/><path class="cls-1" d="M793.71,213.11h16.11a68.58,68.58,0,0,0-.67,9.14q-.14,5.91-.14,14.23v27.39q0,13.11-7.62,21.06t-22.72,7.95q-15.25,0-22.94-7.95t-7.68-21.06V236.48q0-7.95-.11-14a61.92,61.92,0,0,0-.69-9.32h16.11v48.34a34.13,34.13,0,0,0,1.34,10.1,12.4,12.4,0,0,0,4.67,6.66q3.33,2.37,9.3,2.37t9.1-2.37a12.5,12.5,0,0,0,4.59-6.66,33.79,33.79,0,0,0,1.35-10.1Z" transform="translate(-22.63 -134.54)"/><path class="cls-1" d="M840.36,279.18H852q7.63,0,13.51-.14a63.89,63.89,0,0,0,9-.67v13.16H824.25a61.54,61.54,0,0,0,.7-9.32q.1-6.09.11-14V236.48q0-7.95-.11-14a61.66,61.66,0,0,0-.7-9.32h16.11Z" transform="translate(-22.63 -134.54)"/><path class="cls-1" d="M867.74,213.11h63.11v13.43a34.48,34.48,0,0,0-6-.88c-2.06-.13-4.19-.19-6.37-.19H906.85v43.88q0,7.51.18,13.32a49.66,49.66,0,0,0,.89,8.86H890.46a49.66,49.66,0,0,0,.89-8.86q.2-5.81.19-13.32V225.47H880.1q-3.23,0-6.34.19a34.66,34.66,0,0,0-6,.88Z" transform="translate(-22.63 -134.54)"/></svg>